<?xml version="1.0" encoding="UTF-8" ?>
<!DOCTYPE svg PUBLIC "-//W3C//DTD SVG 1.1//EN" "http://www.w3.org/Graphics/SVG/1.1/DTD/svg11.dtd">
<svg width="998pt" height="1002pt" viewBox="0 0 998 1002" version="1.1" xmlns="http://www.w3.org/2000/svg">
<path fill="#00000000" d=" M 0.00 0.00 L 998.00 0.00 L 998.00 1002.00 L 0.00 1002.00 L 0.00 0.00 Z" />
<path fill="#ffffff" d=" M 297.36 2.31 C 346.84 2.13 396.34 2.21 445.83 2.26 C 446.23 10.15 445.97 18.06 446.06 25.96 C 445.81 59.67 446.15 93.36 446.02 127.06 C 445.71 140.71 446.34 154.35 445.88 167.99 C 446.55 178.96 445.52 189.94 446.00 200.92 C 445.95 277.94 446.01 354.94 446.00 431.95 C 445.62 440.55 446.43 449.18 445.85 457.77 C 297.58 458.00 149.30 457.79 1.02 457.88 C 0.49 454.96 0.30 452.00 0.55 449.04 C 0.44 413.02 0.58 377.00 0.52 341.00 C 0.35 338.70 0.56 336.41 1.13 334.19 C 98.74 334.31 196.35 334.18 293.96 334.25 C 295.45 334.31 297.95 334.23 297.42 331.99 C 297.41 304.55 297.41 277.10 297.44 249.66 C 296.31 249.50 295.17 249.41 294.04 249.38 C 239.35 249.45 184.65 249.38 129.96 249.41 C 86.93 249.31 43.89 249.57 0.86 249.29 C 0.16 239.57 0.65 229.81 0.52 220.08 C 0.68 195.74 0.42 171.39 0.67 147.06 C 0.43 139.97 0.42 132.84 0.97 125.77 C 98.64 125.56 196.31 125.70 293.98 125.69 C 295.18 125.55 297.85 126.23 297.42 124.07 C 297.39 83.48 297.48 42.89 297.36 2.31 Z" />
<path fill="#ffffff" d=" M 552.00 2.18 C 600.33 2.25 648.66 2.22 696.99 2.20 C 698.13 2.24 699.27 2.38 700.40 2.61 C 700.34 43.63 700.40 84.64 700.37 125.66 C 784.93 125.68 869.50 125.66 954.06 125.67 C 968.33 125.80 982.62 125.41 996.88 125.87 C 996.91 166.99 996.83 208.12 996.93 249.24 C 948.63 249.63 900.30 249.28 851.99 249.41 C 801.45 249.37 750.90 249.48 700.35 249.34 C 700.40 277.49 700.39 305.63 700.35 333.78 C 703.52 334.38 706.76 334.26 709.98 334.23 C 805.58 334.23 901.17 334.26 996.77 334.21 C 997.05 375.39 996.79 416.57 996.88 457.74 C 848.58 458.06 700.26 457.73 551.96 457.91 C 551.48 441.29 551.89 424.65 551.76 408.03 C 551.73 274.04 551.78 140.05 551.73 6.05 C 551.76 4.76 551.85 3.47 552.00 2.18 Z" />
<path fill="#ffffff" d=" M 0.94 542.76 C 51.29 542.38 101.67 542.71 152.03 542.60 C 240.02 542.59 328.00 542.61 415.98 542.60 C 425.95 542.78 435.95 542.26 445.90 542.84 C 446.05 652.58 446.11 762.29 445.97 872.03 C 445.97 913.02 446.19 954.01 445.91 995.01 C 445.80 996.32 446.29 998.92 444.05 998.42 C 395.69 998.38 347.33 998.47 298.98 998.37 C 296.83 998.86 297.56 996.15 297.39 995.02 C 297.35 954.99 297.64 914.95 297.23 874.92 C 245.85 874.54 194.45 874.88 143.06 874.76 C 95.76 874.80 48.45 874.68 1.15 874.83 C -0.11 867.60 1.03 860.23 0.55 852.95 C 0.61 827.97 0.61 803.01 0.54 778.02 C 1.04 768.99 -0.36 759.87 1.01 750.90 C 99.73 750.77 198.46 750.87 297.19 750.85 C 297.74 722.80 297.22 694.70 297.46 666.63 C 283.66 666.09 269.82 666.53 256.01 666.40 C 196.35 666.39 136.69 666.41 77.03 666.40 C 51.69 666.26 26.34 666.68 1.02 666.20 C -0.13 660.51 1.03 654.72 0.52 648.99 C 0.50 621.01 0.47 593.03 0.58 565.05 C 0.69 557.62 0.11 550.16 0.94 542.76 Z" />
<path fill="#ffffff" d=" M 551.86 542.71 C 699.94 542.47 848.03 542.63 996.10 542.64 C 996.29 542.97 996.66 543.63 996.84 543.96 C 996.99 583.31 996.80 622.67 996.92 662.02 C 996.60 663.38 997.47 665.49 996.12 666.38 C 897.55 666.41 798.98 666.41 700.41 666.39 C 700.32 694.52 700.43 722.65 700.35 750.77 C 791.22 750.93 882.10 750.81 972.98 750.83 C 980.93 750.97 988.91 750.56 996.86 751.08 C 996.84 792.31 997.01 833.54 996.78 874.77 C 901.87 874.76 806.96 874.76 712.06 874.77 C 708.14 874.83 704.20 874.49 700.32 875.13 C 700.47 915.10 700.30 955.08 700.41 995.05 C 700.60 996.58 700.22 998.89 698.08 998.41 C 649.36 998.35 600.63 998.53 551.90 998.32 C 551.54 935.91 551.86 873.48 551.75 811.06 C 551.83 721.61 551.61 632.16 551.86 542.71 Z" />
</svg>